<?xml version="1.0" encoding="utf-8"?>
<svg id="master-artboard" viewBox="0 0 32 16" version="1.1" xmlns="http://www.w3.org/2000/svg" x="0px" y="0px" style="enable-background:new 0 0 1400 980;" width="32px" height="16px"><rect id="ee-background" x="0" y="0" width="32" height="16" style="fill: white; fill-opacity: 0; pointer-events: none;"/><path fill-rule="evenodd" clip-rule="evenodd" d="M21 7V5H23V7H21ZM25 7V5H27V7H25ZM18 11V10H19V11H18ZM21 10H19V9H21V10ZM23 10V11H21V10H23ZM25 10H24H23V9H24H25V10ZM27 10V11H25V10H27ZM29 10H27V9H29V10ZM29 10H30V11H29V10Z" fill="#FF0000" transform="matrix(1, 0, 0, 1, 6.357828823411182e-7, 0)"/><path fill-rule="evenodd" clip-rule="evenodd" d="M5 7V5H7V7H5ZM9 7V5H11V7H9ZM2 11V10H3V11H2ZM5 10H3V9H5V10ZM7 10V11H5V10H7ZM9 10H8H7V9H8H9V10ZM11 10V11H9V10H11ZM13 10H11V9H13V10ZM13 10H14V11H13V10Z" fill="#FF0000" transform="matrix(1, 0, 0, 1, 6.357828823411182e-7, 0)"/></svg>