<?xml version="1.0" encoding="utf-8"?>
<svg id="master-artboard" viewBox="0 0 32 16" version="1.1" xmlns="http://www.w3.org/2000/svg" x="0px" y="0px" style="enable-background:new 0 0 1400 980;" width="32px" height="16px"><g transform="matrix(1, 0, 0, 1, 6.357828397085541e-7, 0)"><path d="M5 5V7H7V5H5Z" fill="#FAB9B0"/><path d="M9 5V7H11V5H9Z" fill="#FAB9B0"/><path d="M21 5V7H23V5H21Z" fill="#FAB9B0"/><path d="M25 5V7H27V5H25Z" fill="#FAB9B0"/><path d="M2 11V10H3V9H5V10H7V9H9V10H11V9H13V10H14V11H13V10H11V11H9V10H7V11H5V10H3V11H2Z" fill="#FAB9B0"/><path d="M18 11V10H19V9H21V10H23V9H25V10H27V9H29V10H30V11H29V10H27V11H25V10H23V11H21V10H19V11H18Z" fill="#FAB9B0"/></g></svg>