<?xml version="1.0" encoding="utf-8"?>
<svg id="master-artboard" viewBox="0 0 32 16" version="1.1" xmlns="http://www.w3.org/2000/svg" x="0px" y="0px" style="enable-background:new 0 0 1400 980;" width="32px" height="16px"><rect id="ee-background" x="0" y="0" width="32" height="16" style="fill: white; fill-opacity: 0; pointer-events: none;"/><metadata id="metadata7">
    
  </metadata><rect id="rect-2" x="0" y="0" width="16" height="16" style="fill: white; fill-opacity: 0; pointer-events: none;" transform="matrix(1.1659177541732788, 0, 0, 1.1659176349639893, 14.248462677001953, -1.5733497142791748)"/><path style="fill: rgb(0, 0, 139); fill-opacity: 1; fill-rule: evenodd; stroke: none; stroke-width: 1pt; stroke-linecap: butt; stroke-linejoin: miter; stroke-opacity: 1;" d="M 58.954538,347.23395 C -9.0375362,242.85087 73.060087,233.52847 52.118826,90.624027 C 103.47625,158.04097 117.81456,240.73539 139.37527,265.19403 C 154.25562,284.40262 161.59446,307.58892 159.59376,331.41129 C 159.39203,350.26495 183.21886,373.10960 176.70356,390.71179 C 142.05967,362.96302 82.471056,381.04953 58.954538,347.23395 z " id="path-1" transform="matrix(-0.0548810213804245, 0, 0, 0.05275245010852814, 32.1912956237793, -3.6099085807800293)"/><path style="fill: rgb(0, 0, 139); fill-opacity: 1; fill-rule: evenodd; stroke: none; stroke-width: 1pt; stroke-linecap: butt; stroke-linejoin: miter; stroke-opacity: 1;" d="M 161.78090,377.71368 C 162.17394,357.72344 137.98474,349.05131 128.25468,333.43921 C 112.13998,321.51425 107.03539,302.95237 106.67970,284.67338 C 105.36990,255.43969 131.42797,81.130787 169.39083,34.317227 C 154.84243,106.20319 190.95986,201.95975 213.27368,233.63802 C 228.37325,258.25159 234.04993,286.59077 228.61098,314.47570 C 225.93875,336.72294 207.50985,350.09104 197.54046,370.04477 C 187.56794,382.06155 173.99637,383.20010 161.78090,377.71368 z " id="path-2" transform="matrix(-0.0548810213804245, 0, 0, 0.05275245010852814, 32.1912956237793, -3.6099085807800293)"/><path style="fill: rgb(0, 0, 139); fill-opacity: 1; fill-rule: evenodd; stroke: none; stroke-width: 1pt; stroke-linecap: butt; stroke-linejoin: miter; stroke-opacity: 1;" d="M 175.56070,387.49258 C 181.34732,370.12555 169.89584,342.59764 166.28978,326.49036 C 156.50645,311.98657 157.45181,294.47421 162.16418,278.41263 C 169.10090,252.53750 170.24611,130.43176 282.18931,73.090747 C 195.37176,158.27337 253.01889,227.50163 262.41698,260.83623 C 267.90747,286.16950 265.10079,312.57338 252.71951,335.35605 C 235.62589,366.80984 189.98643,384.14530 175.56070,387.49258 z " id="path-3" transform="matrix(-0.0548810213804245, 0, 0, 0.05275245010852814, 32.1912956237793, -3.6099085807800293)"/><rect id="rect-1" x="0" y="0" width="16" height="16" style="fill: white; fill-opacity: 0; pointer-events: none;" transform="matrix(1.1758350133895874, 0, 0, 1.1758348941802979, -1.198933482170105, -1.8811728954315186)"/><path style="fill: rgb(0, 0, 139); fill-opacity: 1; fill-rule: evenodd; stroke: none; stroke-width: 1pt; stroke-linecap: butt; stroke-linejoin: miter; stroke-opacity: 1;" d="M 58.954538,347.23395 C -9.0375362,242.85087 73.060087,233.52847 52.118826,90.624027 C 103.47625,158.04097 117.81456,240.73539 139.37527,265.19403 C 154.25562,284.40262 161.59446,307.58892 159.59376,331.41129 C 159.39203,350.26495 183.21886,373.10960 176.70356,390.71179 C 142.05967,362.96302 82.471056,381.04953 58.954538,347.23395 z " id="path2043" transform="matrix(0.05534784495830536, 0, 0, 0.05320115387439728, -0.012040706351399422, -3.9350547790527344)"/><path style="fill: rgb(0, 0, 139); fill-opacity: 1; fill-rule: evenodd; stroke: none; stroke-width: 1pt; stroke-linecap: butt; stroke-linejoin: miter; stroke-opacity: 1;" d="M 161.78090,377.71368 C 162.17394,357.72344 137.98474,349.05131 128.25468,333.43921 C 112.13998,321.51425 107.03539,302.95237 106.67970,284.67338 C 105.36990,255.43969 131.42797,81.130787 169.39083,34.317227 C 154.84243,106.20319 190.95986,201.95975 213.27368,233.63802 C 228.37325,258.25159 234.04993,286.59077 228.61098,314.47570 C 225.93875,336.72294 207.50985,350.09104 197.54046,370.04477 C 187.56794,382.06155 173.99637,383.20010 161.78090,377.71368 z " id="path2041" transform="matrix(0.05534784495830536, 0, 0, 0.05320115387439728, -0.012040706351399422, -3.9350547790527344)"/><path style="fill: rgb(0, 0, 139); fill-opacity: 1; fill-rule: evenodd; stroke: rgb(255, 255, 255); stroke-width: 0; stroke-linecap: butt; stroke-linejoin: miter; stroke-opacity: 1;" d="M 175.56070,387.49258 C 181.34732,370.12555 169.89584,342.59764 166.28978,326.49036 C 156.50645,311.98657 157.45181,294.47421 162.16418,278.41263 C 169.10090,252.53750 170.24611,130.43176 282.18931,73.090747 C 195.37176,158.27337 253.01889,227.50163 262.41698,260.83623 C 267.90747,286.16950 265.10079,312.57338 252.71951,335.35605 C 235.62589,366.80984 189.98643,384.14530 175.56070,387.49258 z " id="path2063" transform="matrix(0.05534784495830536, 0, 0, 0.05320115387439728, -0.012040706351399422, -3.9350547790527344)"/><g transform="matrix(0.9999999403953552, 0, 0, 0.9999999403953552, 0.000005086263172415784, 0.000001748402951307071)"><g transform="matrix(1, 0, 0, 1, 6.357828397085541e-7, 0)"><path d="M5 5V7H7V5H5Z" fill="#FAB9B0"/><path d="M9 5V7H11V5H9Z" fill="#FAB9B0"/><path d="M21 5V7H23V5H21Z" fill="#FAB9B0"/><path d="M25 5V7H27V5H25Z" fill="#FAB9B0"/><path d="M2 11V10H3V9H5V10H7V9H9V10H11V9H13V10H14V11H13V10H11V11H9V10H7V11H5V10H3V11H2Z" fill="#FAB9B0"/><path d="M18 11V10H19V9H21V10H23V9H25V10H27V9H29V10H30V11H29V10H27V11H25V10H23V11H21V10H19V11H18Z" fill="#FAB9B0"/></g></g></svg>